<svg xml:space="preserve" style="enable-background:new 0 0 928.5 314.4;" viewBox="0 0 928.5 314.4" y="0px" x="0px" xmlns:xlink="http://www.w3.org/1999/xlink" xmlns="http://www.w3.org/2000/svg" id="Capa_1" version="1.1">
<style type="text/css">
	.st0{fill:#FFFFFF;}
</style>
<g>
	<g>
		<g>
			<g>
				<g>
					<g>
						<g>
							<path d="M84.3,224.3c-0.5,0-0.9-0.2-0.9-0.5v-0.1l-10.5-20.1l-14.1-25.1l-11.7,14.9l0.2,30.8H21l0.7-68.3
								l-0.8-68.3h26.3l-0.6,67.7v11.2l32.8-40.9c0.6-0.5,1.3-0.8,1.7-0.8h27.3l-31.3,35l37.2,64.4H84.3V224.3z" class="st0"></path>
							<path d="M45.3,89.5l-0.6,65.9v6.2v9.9l6.2-7.8l29.7-37c0.2-0.1,0.3-0.2,0.5-0.2h23.4l-27.8,31.2l-1.6,1.9
								l1.3,2.2l35.1,60.7H84.6l-10.2-19.8l0,0l0,0l-12.8-22.8l-2.6-4.5l-3.3,4.1L46,191.8l-0.8,0.9v1.3l0.2,28.5H22.5l0.8-66.4l0,0
								l0,0l-0.8-66.6H45.3 M47.1,86H20.9c-1,0-1.7,0.8-1.7,1.9L20,156l-0.8,68.1c0,1,0.8,1.7,1.7,1.7h26.2c1,0,1.7-0.8,1.7-1.7
								l-0.2-30.2l9.8-12.4l12.8,22.8l10.3,20c0.3,1,1.6,1.6,2.6,1.6h31.2c0.8,0,1.4-0.8,1-1.6l-37.2-64.4l31.7-35.6
								c0.3-0.6,0.2-1.4-0.6-1.4H80.8c-1,0-2.2,0.6-3,1.4L48,161.5v-6.2l0.6-67.6C48.8,86.8,48,86,47.1,86L47.1,86z" class="st0"></path>
						</g>
						<g>
							<path d="M189.1,224.3l0.3-42v-21.2c0-11.9-7.1-20.1-17.3-20.1c-11.6,0-24.2,10.6-24.2,33.7v7.6l0.3,42H121
								l0.6-47.7l-0.2-51.9h25.5l-0.6,11.2l-0.3,5.6l3.4-4.4c7.3-9.3,18.8-14.8,31.9-14.8c21.3,0,34.1,14.3,34.1,38.3v21.6l0.6,42
								h-0.1h-26.6V224.3z" class="st0"></path>
							<path d="M181.3,124.1c20.2,0,32.3,13.6,32.3,36.5v21.6l0.6,40.2h-23.5l0.3-40.4v-21.2c0-12.9-7.8-21.9-19.1-21.9
								c-12.4,0-25.9,11-25.9,35.5v7.7l0.3,40.2h-23.7l0.6-45.9l-0.2-50.1h21.9l-0.5,9.3l-0.6,11.2l6.9-8.8
								C157.8,129.3,168.8,124.1,181.3,124.1 M181.3,120.6c-14.4,0-26.2,6.4-33.1,15.3l0.6-11.2c0-1-0.8-1.7-1.7-1.7h-25.4
								c-1,0-1.7,0.8-1.7,1.7l0.2,51.7l-0.6,47.6c0,1,0.8,1.7,1.7,1.7h27.2c1,0,1.7-0.8,1.7-1.7l-0.3-42v-7.6c0-22,11.6-32,22.4-32
								c9,0,15.6,7.2,15.6,18.4v21.2l-0.3,42c0,1,0.8,1.7,1.7,1.7H216c1,0,1.9-0.8,1.9-1.7l-0.6-42v-21.6
								C217,135.4,203,120.6,181.3,120.6L181.3,120.6z" class="st0"></path>
						</g>
						<g>
							<path d="M276.6,226.8c-32.1,0-51.3-19.4-51.3-52.1c0-32.4,19.7-52.7,51.3-52.7c31.9,0,50.8,19.4,50.8,52.1
								C327.4,207.2,308.5,226.8,276.6,226.8z M276.4,138.7c-16,0.2-24,12.1-24,36.3c0,23.7,7.9,35.4,24.2,35.4
								c16,0,23.5-11.3,23.5-35.6S292.4,138.7,276.4,138.7L276.4,138.7z" class="st0"></path>
							<path d="M276.6,123.9c15.3,0,27.9,4.7,36.4,13.5c8.4,8.7,12.7,21.4,12.7,36.7c0,31.9-18.4,50.9-49.1,50.9
								c-31,0-49.5-18.8-49.5-50.4c0-15.3,4.4-28.3,12.9-37.1C248.7,128.7,261.3,123.9,276.6,123.9 M276.6,212.1
								c8.7,0,15.2-3.3,19.4-9.7c4-6,5.9-15.1,5.9-27.7c0-25.1-8.6-37.9-25.6-37.9c-8.8,0.1-15.5,3.6-19.7,10.2
								c-4,6.3-5.9,15.3-5.9,27.8c0,12.3,2,21.3,6.2,27.4C261.3,208.8,267.9,212.1,276.6,212.1 M276.6,120.4
								c-33.6,0-53,21.6-53,54.4s19.4,53.8,53,53.8s52.6-21.6,52.6-54.4C329.2,141.4,310.2,120.4,276.6,120.4L276.6,120.4z
								 M276.6,208.6c-15,0-22.4-10.3-22.4-33.6s7-34.4,22.2-34.5c14.8,0,22,11.2,22,34.4C298.4,198.4,291.4,208.6,276.6,208.6
								L276.6,208.6z" class="st0"></path>
						</g>
						<g>
							<path d="M417.8,224.3c-0.2,0-0.5-0.2-0.5-0.3l-18-84.2l-15.6,84.1c0,0.1-0.3,0.3-0.5,0.3h-31.6
								c-0.2,0-0.5-0.2-0.5-0.3l-22-99.1h26.2c0.1,0,0.2,0.1,0.2,0.1v0.2l13.1,85.9l16-85.8c0-0.1,0.3-0.3,0.5-0.3h32.6
								c0.2,0,0.5,0.2,0.5,0.3l15.3,84.2l13.8-84.4v-0.1l0,0c0,0,0.1-0.1,0.2-0.1h23.8l-21.7,99.1c0,0.2-0.3,0.5-0.5,0.5
								L417.8,224.3L417.8,224.3z" class="st0"></path>
							<path d="M469.7,126.5l-21,96.1h-29.8l-16-74.7l-3.6-17.1l-3.1,17.2l-13.8,74.5h-29.5l-21.3-96.1h22.8l11.4,74.7
								l3.1,20.2l3.7-20.1l14-74.8h30.5l13.4,73.3l3.6,19.8l3.3-19.9l12-73.3h20.6 M472.2,123H448c-1,0-2,0.8-2,1.7l-12.2,74.4
								l-13.6-74.4c-0.2-1-1.2-1.7-2.2-1.7h-32.6c-1,0-2,0.8-2.2,1.7l-14.2,75.8l-11.6-75.8c0-1-1-1.7-2-1.7h-26.6
								c-0.8,0-1.6,0.8-1.4,1.7l22,99.4c0.2,1,1.2,1.7,2.2,1.7h31.6c1,0,2-0.8,2.2-1.7l14-75.6l16.2,75.6c0.2,1,1.2,1.7,2.2,1.7
								h31.7c1,0,2-0.8,2.2-1.7l21.7-99.4C473.7,123.8,473.2,123,472.2,123L472.2,123z" class="st0"></path>
						</g>
						<g>
							<path d="M524.6,226.8c-31.6,0-51.3-19.9-51.3-52.1c0-32.4,19.4-52.7,50.6-52.7c32.1,0,50.8,20.7,51.4,56.6h-75.5
								l0.1,1.9c1.3,19.9,9.4,29.7,24.9,29.7c11.5,0,18.8-5.7,21.6-16.9c0-0.2,0.3-0.5,0.5-0.5h25
								C569.8,209.4,554,226.8,524.6,226.8z M524.2,138.5c-12.9,0-20.7,7.7-23.3,22.8l-0.3,2.1h46.2l-0.2-2
								C545.3,150.3,538.9,138.5,524.2,138.5z" class="st0"></path>
							<path d="M524,123.9c30.5,0,48.5,19.4,49.7,53.3h-71.9H498l0.2,3.7c1.3,21,10,31.3,26.6,31.3c12,0,20-6,23.1-17.4
								h22c-1.6,7.9-6.3,15-13.1,20.4c-8.4,6.5-19.7,10-32.3,10c-15.5,0-28.3-4.9-36.9-14.1c-8.3-8.8-12.7-21.4-12.7-36.2
								C475.1,143.4,493.9,123.9,524,123.9 M498.5,165.1h4.1h42.2h3.8l-0.5-3.8c-1.6-15.1-10.9-24.5-24.1-24.5
								c-9.5,0-21.6,4.2-25,24.3L498.5,165.1 M524,120.4c-32.8,0-52.3,21.6-52.3,54.4c0,31.2,18.6,53.8,53,53.8
								c28.8,0,46.7-16.7,49.4-35.6c0.2-1-0.6-1.7-1.6-1.7h-25.2c-1,0-2,0.8-2.2,1.7c-2.8,11-10,15.6-20,15.6
								c-14.4,0-22-8.6-23.1-28h73.6c1,0,1.7-0.8,1.7-1.7C576.5,142.8,557.8,120.4,524,120.4L524,120.4z M502.6,161.6
								c2.4-14.2,9.7-21.4,21.6-21.4c13.1,0,19.4,10.3,20.6,21.4H502.6L502.6,161.6z" class="st0"></path>
						</g>
						<g>
							<path d="M626.4,226.3c-13.3,0-24.3-5.1-31.9-14.7c-7.2-9.2-10.9-21.9-10.9-36.7c0-30.7,17.9-52.1,43.5-52.1
								c12.1,0,21.6,4.2,28.5,12.3l3.5,4.1l-0.9-14.5l26.9,0.1l-0.6,49.8l0.6,49.7h-26.6l0.3-10.2l0.2-5.2l-3.3,4.1
								C648.2,221.7,638.4,226.3,626.4,226.3z M634.6,139.3c-10.9,0-24,5.9-24,34c0,13.6,3.1,36.5,23.7,36.5h0.3
								c10.9,0,24.1-6,24.3-34.5c0.2-23-8.3-35.7-23.7-35.9C635.1,139.3,634.9,139.3,634.6,139.3z" class="st0"></path>
							<path d="M627,124.5c11.5,0,20.6,4,27.1,11.7l6.9,8.3l-0.7-10.7l-0.5-7.3h23.3l-0.6,48l0,0l0,0l0.6,47.9h-23.1
								l0.3-8.4l0.5-10.3l-6.6,8c-6.9,8.5-16.3,12.7-27.7,12.7c-12.8,0-23.3-4.9-30.5-14c-7-8.8-10.6-21.2-10.6-35.7
								C585.3,145.2,602.5,124.5,627,124.5 M634.4,211.5h0.3c11.7,0,25.8-6.3,26-36.3c0.1-11.6-2-20.8-6-27.2
								c-4.4-6.7-11-10.3-19.3-10.5c-0.2,0-0.6,0-0.8,0c-22.3,0-25.7,22.3-25.7,35.7C608.9,206.5,624.9,211.5,634.4,211.5 M627,121
								c-28,0-45.2,24-45.2,53.8c0,30,15.3,53.1,44.5,53.1c13,0,23.1-5.2,30.4-14l-0.3,10.2c0,1,0.8,1.7,1.7,1.7h26.6
								c1,0,1.7-0.8,1.7-1.7l-0.6-49.5l0.6-49.8c0-1-0.8-1.7-1.7-1.7h-26.7c-1,0-1.7,0.8-1.7,1.7l0.6,9.2
								C649.8,125.6,639.8,121,627,121L627,121z M634.4,208c-14.2,0-22-11.7-22-34.8c0-20.8,7.6-32.2,22.2-32.2c0.2,0,0.5,0,0.8,0
								c14.4,0.2,22.2,12.2,22,34.2c-0.2,21.7-8,32.8-22.6,32.8C634.7,208,634.6,208,634.4,208L634.4,208z" class="st0"></path>
						</g>
						<g>
							<path d="M739.8,226.3c-7.6,0-32.2-2.2-32.2-30.5l0.2-53.4h-13.4v-17.7h11.6h1.7L707.6,99h26.6l-0.1,24.1v1.7
								h24.5l0.1,17.7h-23H734l0.2,52.6c0,8.8,4.3,13.4,12.8,13.4c4.2,0,8-0.6,11.6-1.7v15.6c0,0.2-0.2,0.6-0.6,0.8
								C753.5,224.5,746.8,226.3,739.8,226.3z" class="st0"></path>
							<path d="M732.5,100.7l-0.2,22.3v3.5h3.5h21.2v14.2h-21.3h-3.5v3.5l0.2,50.8c0,9.9,5,15.1,14.5,15.1
								c3.5,0,6.7-0.3,9.9-1.2v12.7c-4.2,1.4-10.3,2.9-16.9,2.9c-6,0-14.7-1.2-21.3-6.5c-6-4.9-9.2-12.4-9.2-22.1l0.2-51.6v-3.5
								h-3.5h-9.9v-14.2h9.9h3.5v-3.5l-0.2-22.3h23 M734.2,97.2h-26.6c-1,0-1.7,0.8-1.7,1.7l0.2,24h-11.6c-1,0-1.7,0.8-1.7,1.7v17.6
								c0,1,0.8,1.7,1.7,1.7h11.6l-0.2,51.6c0,23.4,16.6,32.2,34,32.2c6.4,0,13-1.4,18.8-3.4c0.8-0.3,1.6-1.4,1.6-2.4v-16
								c0-0.7-0.7-1.4-1.5-1.4c-0.1,0-0.2,0-0.3,0c-3,1-6.7,1.7-11.6,1.7c-6.6,0-11-2.8-11-11.6l-0.2-50.8h23c1,0,1.9-0.8,1.9-1.7
								v-17.6c0-1-0.8-1.7-1.9-1.7h-22.8l0.2-24C736,98,735.1,97.2,734.2,97.2L734.2,97.2z" class="st0"></path>
						</g>
						<g>
							<path d="M814.3,226.6c-29.9,0-47.6-12.2-48.5-33.5h25.7v0.1l0.1,0.1c0.8,12.2,8.7,18.3,24.2,18.3
								c12.7,0,19.9-5.2,19.9-14.3c0-9.4-11.7-11.2-25.5-13.3c-19.7-2.9-42-6.3-42-30.6c0-19.8,15.8-31,43.3-31
								c27.4,0,43.5,10.9,45.2,30.7h-24.3c-0.1,0-0.2-0.1-0.2-0.3c-1.9-10.3-9-15.6-21-15.6c-14.7,0-17.8,7.7-17.8,14.2
								c0,9.4,11.7,11,25.4,12.9c19.8,2.7,42.1,5.8,42.1,30.5C860.7,214.1,842.6,226.6,814.3,226.6z" class="st0"></path>
							<path d="M811.5,124.1c12.9,0,23.6,2.6,31,7.6c7,4.7,11,11.3,12.3,19.7h-21.2c-2.3-10.6-9.9-16-22.6-16
								c-17,0-19.5,10-19.5,15.9c0,10.9,13,12.7,26.9,14.5c9.4,1.3,20,2.8,27.9,7c8.6,4.5,12.7,11.5,12.7,21.9
								c0,9.2-4.2,16.7-12.1,22.1c-8,5.3-19.3,8.3-32.6,8.3c-14.2,0-25.9-2.9-34-8.4c-7.4-5.1-11.7-12.4-12.6-21.6h22.2
								c1.4,12.2,10.1,18.4,25.7,18.4c13.6,0,21.6-6,21.6-16c0-10.9-13-12.9-27-14.9c-9.3-1.4-20-3-27.8-7.2
								c-8.6-4.5-12.6-11.5-12.6-21.6c0-9.3,3.6-16.6,10.6-21.6C787.7,126.7,798.4,124.1,811.5,124.1 M811.5,120.6
								c-27.8,0-45,11.4-45,32.8c0,43.1,67.3,24.2,67.3,43.8c0,8-6.4,12.6-18.1,12.6c-14,0-21.6-5-22.4-16.6c0-1-0.8-1.9-1.7-1.9
								H766c-1,0-1.7,0.8-1.7,1.9c1,23,20.2,35.2,50.2,35.2c27.8,0,48.1-12.2,48.1-33.8c0-43.8-67.4-23.8-67.4-43.4
								c0-8.8,6.2-12.4,16-12.4c12.2,0,17.8,5.3,19.4,14.2c0.2,1,1,1.9,2,1.9H857c1,0,1.9-0.8,1.6-1.9
								C856.8,131.4,838.5,120.6,811.5,120.6L811.5,120.6z" class="st0"></path>
						</g>
					</g>
				</g>
			</g>
			<g>
				<g>
					<path d="M884.2,226.7c-6,0-12.6-3.3-13.6-10.5c-1.3-8.7,6.4-15.8,14.3-17c1-0.1,2-0.2,2.9-0.2
						c7.2,0,12.3,4.2,13.4,10.8c0.9,6.7-4.8,15.2-14.4,16.6C886,226.6,885.2,226.7,884.2,226.7z M886.8,182c-0.9,0-2-0.9-2.8-2.6
						c-3-5.9-6.6-20.8-8.8-36.2c-1.6-11.6-2.4-22.7-2.1-31.3c0.3-10,3.5-22.3,16.4-24.2c1-0.1,2.1-0.2,3-0.2c8.1,0,13.8,5.2,15,14
						c0.5,3.5,0.1,8.1-1,14.7c-1.6,9.5-4.8,20.5-8.4,33c-2.4,8.7-5.3,18.5-7.9,29c-0.6,2.6-1.2,3.6-3,3.8
						C886.9,182,886.9,182,886.8,182z" class="st0"></path>
					<path d="M892.4,89.3c7.2,0,12.2,4.7,13.3,12.4c0.5,3.4,0.1,7.8-1,14.1c-1.6,9.4-4.8,20.2-8.4,32.8
						c-2.4,8.7-5.3,18.6-7.9,29l0,0l0,0c-0.6,2.3-0.8,2.3-1.5,2.4c-0.2,0-0.7-0.6-1.3-1.6c-2.4-4.9-6.3-18.7-8.7-35.6
						c-1.6-11.5-2.4-22.4-2.1-30.9c0.3-9.4,3.1-20.8,14.9-22.6C890.6,89.4,891.6,89.3,892.4,89.3 M887.9,200.8
						c6.4,0,10.8,3.5,11.6,9.4c0.5,3-0.6,6.3-2.9,9.1c-2.4,3-6,5-10,5.6c-0.8,0.1-1.5,0.1-2.3,0.1c-7.3,0-11.3-4.5-11.9-9
						c-0.5-3.1,0.6-6.6,2.8-9.4c2.4-3,6-5,10.1-5.6C886.1,200.8,887,200.8,887.9,200.8 M892.4,85.8c-1,0-2.2,0.1-3.4,0.2
						c-12.9,1.9-17.4,13.5-17.8,25.9c-0.3,9.3,0.6,20.7,2.1,31.5c2.3,15.9,6,30.8,9.1,36.7c0.9,1.9,2.4,3.5,4.3,3.5
						c0.1,0,0.3,0,0.5,0c3.1-0.5,4-2.7,4.5-5.1c6.2-25,13.4-45.5,16.3-62c1.2-5.9,1.6-11,1-15.1C908,92.7,902.3,85.8,892.4,85.8
						L892.4,85.8z M887.9,197.3c-1,0-2.1,0.1-3.1,0.2c-10.6,1.5-17,10.6-15.8,19c1,7.7,7.8,12,15.3,12c0.9,0,1.9-0.1,2.8-0.2
						c10.3-1.5,17-10.6,15.8-18.6C901.9,202.2,896.2,197.3,887.9,197.3L887.9,197.3z" class="st0"></path>
				</g>
			</g>
		</g>
	</g>
</g>
</svg>
